<svg width="6" height="6" viewBox="0 0 6 6" fill="none" xmlns="http://www.w3.org/2000/svg">
<path fill-rule="evenodd" clip-rule="evenodd" d="M5.13021 0.405564C5.03798 0.408708 4.95334 0.455869 4.90452 0.531327L2.29167 4.39223L0.598961 2.9795C0.526261 2.90666 0.417212 2.87941 0.316843 2.9098C0.217016 2.93967 0.142689 3.02142 0.125328 3.12098C0.107967 3.22107 0.149742 3.32168 0.234378 3.38194L2.17014 5.00008C2.23091 5.04986 2.3112 5.07187 2.38987 5.06086C2.46908 5.04933 2.53907 5.00584 2.58247 4.94139L5.37327 0.824772C5.43295 0.740406 5.43783 0.631412 5.38629 0.542331C5.33475 0.453773 5.23546 0.400848 5.13021 0.405564Z" fill="white"/>
</svg>
