<svg width="16" height="9" viewBox="0 0 16 9" fill="none" xmlns="http://www.w3.org/2000/svg">
<path fill-rule="evenodd" clip-rule="evenodd" d="M0.0801106 4.11429C0.201254 3.96335 2.63844 0.967081 5.97834 0C4.98966 0.704348 4.33184 1.90621 4.33184 3.27578C4.33314 5.44891 5.97444 7.21118 8 7.21118C10.0256 7.21118 11.6669 5.44891 11.6682 3.27578C11.6682 1.90621 11.0103 0.704348 10.0217 0C13.3616 0.968478 15.7987 3.96335 15.9199 4.11429C16.0267 4.24845 16.0267 4.44969 15.9199 4.58385C15.7753 4.76413 12.339 9 8 9C3.661 9 0.224701 4.76413 0.0801106 4.58385C-0.0267035 4.44969 -0.0267035 4.24845 0.0801106 4.11429ZM6.33265 3.27578C6.33265 2.28773 7.07905 1.48696 8 1.48696C8.92095 1.48696 9.66735 2.28773 9.66735 3.27578C9.66735 4.26382 8.92095 5.0646 8 5.0646C7.07905 5.0646 6.33265 4.26382 6.33265 3.27578Z" fill="#D0D0D0"/>
</svg>
