<svg width="15" height="15" viewBox="0 0 15 15" fill="none" xmlns="http://www.w3.org/2000/svg">
<path fill-rule="evenodd" clip-rule="evenodd" d="M11.1305 13.5758C11.1261 13.5758 11.1217 13.5758 11.1173 13.5758C8.99887 13.5045 6.51709 11.3953 4.80714 9.63786C3.095 7.88038 1.04152 5.33011 0.97546 3.16436C0.951237 2.40437 2.76688 1.05289 2.7856 1.03932C3.25685 0.702303 3.77986 0.822183 3.99456 1.12754C4.1399 1.3345 5.51622 3.4765 5.66597 3.71965C5.82122 3.97185 5.79809 4.34732 5.60431 4.72392C5.49751 4.93315 5.14296 5.57326 4.97671 5.87183C5.15618 6.13421 5.63073 6.77771 6.61068 7.78425C7.59172 8.79078 8.21712 9.27935 8.47367 9.46369C8.76435 9.29292 9.38754 8.92876 9.59124 8.81906C9.95239 8.62227 10.3157 8.59739 10.5635 8.75346C10.8167 8.91292 12.8966 10.3334 13.0882 10.4702C13.249 10.5867 13.3525 10.7858 13.3734 11.0176C13.3932 11.2517 13.3227 11.4994 13.1763 11.7154C13.1642 11.7335 11.8638 13.5758 11.1305 13.5758Z" fill="white"/>
</svg>
