<svg width="15" height="16" viewBox="0 0 15 16" fill="none" xmlns="http://www.w3.org/2000/svg">
<path fill-rule="evenodd" clip-rule="evenodd" d="M3.06818 0.329346C1.37727 0.329346 0 1.70662 0 3.39753V12.2612C0 13.9521 1.37727 15.3293 3.06818 15.3293H11.9318C13.6227 15.3293 15 13.9521 15 12.2612V3.39753C15 1.70662 13.6227 0.329346 11.9318 0.329346H3.06818ZM11.625 2.20435H12.75C12.9563 2.20435 13.125 2.3731 13.125 2.57935V3.70435C13.125 3.9106 12.9563 4.07935 12.75 4.07935H11.625C11.4187 4.07935 11.25 3.9106 11.25 3.70435V2.57935C11.25 2.3731 11.4187 2.20435 11.625 2.20435ZM11.6955 4.66528C10.8153 3.18872 9.2636 2.20435 7.5 2.20435C5.7364 2.20435 4.18466 3.18872 3.30451 4.66528H1.875V11.6965C1.875 12.6668 2.61618 13.4543 3.52941 13.4543H11.4706C12.3838 13.4543 13.125 12.6668 13.125 11.6965V4.66528H11.6955ZM7.96875 4.07935C5.64195 4.07935 3.75 5.97129 3.75 8.2981C3.75 10.6249 5.64195 12.5168 7.96875 12.5168C10.2956 12.5168 12.1875 10.6249 12.1875 8.2981C12.1875 5.97129 10.2956 4.07935 7.96875 4.07935ZM11.25 8.2981C11.25 6.48976 9.77708 5.01685 7.96875 5.01685C6.16042 5.01685 4.6875 6.48976 4.6875 8.2981C4.6875 10.1064 6.16042 11.5793 7.96875 11.5793C9.77708 11.5793 11.25 10.1064 11.25 8.2981Z" fill="white"/>
</svg>
