<svg width="16" height="16" viewBox="0 0 16 16" fill="none" xmlns="http://www.w3.org/2000/svg">
<path fill-rule="evenodd" clip-rule="evenodd" d="M3.27273 0C1.46963 0 0 1.46963 0 3.27273V12.7273C0 14.5304 1.46963 16 3.27273 16H12.7273C14.5304 16 16 14.5304 16 12.7273V3.27273C16 1.46963 14.5304 0 12.7273 0H3.27273ZM3.27273 0.727273H12.7273C14.1373 0.727273 15.2727 1.86273 15.2727 3.27273V12.7273C15.2727 14.1373 14.1373 15.2727 12.7273 15.2727H3.27273C1.86273 15.2727 0.727273 14.1373 0.727273 12.7273V3.27273C0.727273 1.86273 1.86273 0.727273 3.27273 0.727273ZM12 2.18182C12 1.78347 12.3289 1.45455 12.7273 1.45455H13.8182C14.2165 1.45455 14.5455 1.78347 14.5455 2.18182V3.27273C14.5455 3.67107 14.2165 4 13.8182 4H12.7273C12.3289 4 12 3.67107 12 3.27273V2.18182ZM12.7273 2.18182H13.8182V3.27273H12.7273V2.18182ZM4.59943 4.72727C5.46045 3.83306 6.66606 3.27273 8 3.27273C9.33394 3.27273 10.5396 3.83306 11.4006 4.72727H14.1818C14.3826 4.72729 14.5454 4.89009 14.5455 5.09091V12.3636C14.5455 13.5642 13.5642 14.5455 12.3636 14.5455H3.63636C2.43577 14.5455 1.45455 13.5642 1.45455 12.3636V5.09091C1.45457 4.89009 1.61736 4.72729 1.81818 4.72727H4.59943ZM8 4C10.2085 4 12 5.79146 12 8C12 10.2085 10.2085 12 8 12C5.79146 12 4 10.2085 4 8C4 5.79146 5.79146 4 8 4ZM7.85085 4.75781C7.89786 4.73722 7.94869 4.72682 8 4.72727C8.05179 4.72661 8.10313 4.73703 8.15057 4.75781C9.88014 4.84124 11.2727 6.24995 11.2727 8C11.2727 9.80342 9.80304 11.2727 8 11.2727C6.19696 11.2727 4.72727 9.80342 4.72727 8C4.72727 6.24947 6.12061 4.84051 7.85085 4.75781ZM2.18182 5.45455H4.02486C3.55138 6.19058 3.27273 7.06326 3.27273 8C3.27273 10.6031 5.3969 12.7273 8 12.7273C10.6031 12.7273 12.7273 10.6031 12.7273 8C12.7273 7.06326 12.4486 6.19058 11.9751 5.45455H13.8182V12.3636C13.8182 13.171 13.171 13.8182 12.3636 13.8182H3.63636C2.82895 13.8182 2.18182 13.171 2.18182 12.3636V5.45455ZM10.5455 8C10.5455 6.5896 9.41005 5.45455 8 5.45455C6.58995 5.45455 5.45455 6.5896 5.45455 8C5.45455 9.4104 6.58995 10.5455 8 10.5455C9.41005 10.5455 10.5455 9.4104 10.5455 8Z" fill="#7F7F7F"/>
</svg>
