<?xml version="1.0" encoding="UTF-8"?>
<svg width="348px" height="144px" viewBox="0 0 348 144" version="1.1" xmlns="http://www.w3.org/2000/svg" xmlns:xlink="http://www.w3.org/1999/xlink">
    <!-- Generator: Sketch 50 (54983) - http://www.bohemiancoding.com/sketch -->
    <title>logo_idogroup</title>
    <desc>Created with Sketch.</desc>
    <defs></defs>
    <g id="Page-1" stroke="none" stroke-width="1" fill="none" fill-rule="evenodd">
        <g id="Artboard" transform="translate(-426.000000, -528.000000)">
            <g id="FBavatar" transform="translate(350.000000, 350.000000)">
                <g id="logo_idogroup" transform="translate(76.000000, 178.000000)">
                    <g id="i">
                        <polygon id="Rectangle-4" fill="#FF8000" points="22.5 0 45 1.04727223e-15 22.5 25.1546392 0 25.1546392"></polygon>
                        <rect id="Rectangle-2" fill="#FFFFFF" x="0" y="40.2474227" width="22" height="82"></rect>
                    </g>
                    <g id="o" transform="translate(95.000000, 56.000000)" fill="#FFFFFF">
                        <rect id="Rectangle-2-Copy-3" x="0" y="0" width="20.16" height="66"></rect>
                        <rect id="Rectangle-2-Copy-4" x="42.84" y="0" width="20.16" height="66"></rect>
                        <rect id="Rectangle-3" x="0" y="0" width="63" height="19.9245283"></rect>
                        <rect id="Rectangle-3-Copy" x="0" y="46.0754717" width="63" height="19.9245283"></rect>
                    </g>
                    <g id="q" transform="translate(174.000000, 89.000000)" fill="#BABABA">
                        <rect id="Rectangle-2-Copy-3" x="0" y="0" width="10.0740741" height="33.75"></rect>
                        <rect id="Rectangle-2-Copy-4" x="23.9259259" y="0" width="10.0740741" height="55"></rect>
                        <rect id="Rectangle-3" x="0" y="0" width="34" height="10"></rect>
                        <rect id="Rectangle-3-Copy" x="0" y="23.75" width="34" height="10"></rect>
                    </g>
                    <g id="o-small" transform="translate(239.000000, 89.000000)" fill="#BABABA">
                        <rect id="Rectangle-2-Copy-3" x="0" y="0" width="10.0740741" height="34"></rect>
                        <rect id="Rectangle-2-Copy-4" x="23.9259259" y="0" width="10.0740741" height="34"></rect>
                        <rect id="Rectangle-3" x="0" y="0" width="34" height="10.0740741"></rect>
                        <rect id="Rectangle-3-Copy" x="0" y="23.9259259" width="34" height="10.0740741"></rect>
                    </g>
                    <g id="o-small-copy" transform="translate(211.000000, 89.000000)" fill="#BABABA">
                        <rect id="Rectangle-2-Copy-3" x="0" y="0" width="10.1052632" height="34"></rect>
                        <rect id="Rectangle-3" x="0" y="0" width="22.7368421" height="10.0740741"></rect>
                    </g>
                    <g id="u" transform="translate(277.000000, 89.000000)" fill="#BABABA">
                        <rect id="Rectangle-2-Copy-3" x="0" y="0" width="10.0740741" height="34"></rect>
                        <rect id="Rectangle-2-Copy-4" x="23.9259259" y="0" width="10.0740741" height="34"></rect>
                        <rect id="Rectangle-3-Copy" x="0" y="23.9259259" width="34" height="10.0740741"></rect>
                    </g>
                    <g id="p" transform="translate(331.000000, 116.500000) scale(-1, 1) translate(-331.000000, -116.500000) translate(314.000000, 89.000000)" fill="#BABABA">
                        <rect id="Rectangle-2-Copy-3" x="0" y="0" width="10.0740741" height="33.75"></rect>
                        <rect id="Rectangle-2-Copy-4" x="23.9259259" y="0" width="10.0740741" height="55"></rect>
                        <rect id="Rectangle-3" x="0" y="0" width="34" height="10"></rect>
                        <rect id="Rectangle-3-Copy" x="0" y="23.75" width="34" height="10"></rect>
                    </g>
                    <g id="d" transform="translate(27.000000, 12.000000)" fill="#FFFFFF">
                        <rect id="Rectangle-2-Copy" x="0" y="43.75" width="20.16" height="66.25"></rect>
                        <rect id="Rectangle-2-Copy-2" x="42.84" y="0" width="20.16" height="110"></rect>
                        <rect id="Rectangle-3-Copy-2" x="0" y="90" width="63" height="20"></rect>
                        <rect id="Rectangle-3-Copy-3" x="0" y="43.75" width="63" height="20"></rect>
                    </g>
                </g>
            </g>
        </g>
    </g>
</svg>
