<svg width="16" height="16" viewBox="0 0 16 16" fill="none" xmlns="http://www.w3.org/2000/svg">
<path fill-rule="evenodd" clip-rule="evenodd" d="M3.42255 0.941908C3.15489 0.920911 2.85733 0.995712 2.58288 1.18206C2.34103 1.34478 1.81929 1.74504 1.33152 2.19778C1.08831 2.4235 0.855974 2.6584 0.676626 2.88936C0.495919 3.12033 0.33831 3.33161 0.347821 3.63869C0.357332 3.91427 0.385865 4.72921 0.993202 5.97852C1.60054 7.22652 2.77853 8.93907 5.07608 11.1595C7.375 13.3799 9.14809 14.5177 10.4402 15.1043C11.7323 15.6909 12.5774 15.7184 12.8628 15.7276C13.1793 15.7368 13.3981 15.5846 13.6372 15.41C13.8764 15.2355 14.1196 15.0124 14.3533 14.7775C14.8206 14.3064 15.2351 13.8025 15.4035 13.5689C15.788 13.04 15.7242 12.4154 15.2962 12.1253C15.0272 11.9429 12.553 10.3524 12.1807 10.132C11.803 9.90886 11.3682 10.0099 10.9796 10.2081C10.6739 10.3642 9.84646 10.8222 9.61005 10.9535C9.43206 10.8445 8.75679 10.4102 7.30434 9.00731C5.85054 7.60446 5.40217 6.95225 5.2894 6.78034C5.42527 6.552 5.89809 5.75674 6.06114 5.45622C6.26494 5.08222 6.37907 4.65834 6.13586 4.2909C6.03396 4.13474 5.57065 3.45365 5.10326 2.76994L5.07936 2.73509C4.61949 2.06432 4.18825 1.43532 4.07472 1.28311V1.28179C3.92391 1.08101 3.68885 0.962904 3.42255 0.941908ZM8 1.61774V2.28964C11.4524 2.28964 14.2609 5.00217 14.2609 8.33672H14.9565C14.9565 4.6321 11.8356 1.61774 8 1.61774ZM3.51086 1.6768C3.51086 1.6768 3.4538 1.64005 3.35869 1.62824C3.26358 1.61774 3.13179 1.63087 2.98097 1.73323V1.73191C2.79755 1.85527 2.26766 2.25946 1.8125 2.68071C1.58559 2.89199 1.375 3.10983 1.23233 3.29355C1.13455 3.41947 1.08273 3.53676 1.05936 3.58965C1.04863 3.61393 1.0439 3.62463 1.04347 3.61638L1.04419 3.63847C1.05368 3.93315 1.07389 4.56144 1.62228 5.69113C2.18614 6.8512 3.3125 8.5047 5.56793 10.6831C7.82472 12.8642 9.53668 13.9521 10.7364 14.4954C11.9063 15.0264 12.5568 15.0459 12.8631 15.055L12.8859 15.0557C12.8773 15.0553 12.8884 15.0507 12.9136 15.0402C12.9682 15.0175 13.0887 14.9675 13.2187 14.8733C13.409 14.7355 13.6331 14.5308 13.8519 14.3116C14.288 13.8733 14.7065 13.3602 14.8342 13.1831H14.8356C15.0476 12.8917 14.9022 12.6791 14.8967 12.6752C14.7323 12.5636 12.0598 10.8485 11.8193 10.7054C11.7921 10.6897 11.5611 10.6726 11.3043 10.8025C11.0095 10.9521 9.76086 11.6424 9.76086 11.6424L9.58559 11.7382L9.41168 11.6398C9.41168 11.6398 8.51087 11.1227 6.81114 9.48236C5.11277 7.84199 4.5788 6.97193 4.5788 6.97193L4.4769 6.80396L4.57608 6.63467C4.57608 6.63467 5.29212 5.42604 5.44565 5.1439V5.14258C5.58152 4.89456 5.5625 4.67147 5.54891 4.65178C5.46603 4.52449 4.98913 3.82372 4.52173 3.14001C4.05434 2.45762 3.56657 1.7516 3.51086 1.6768ZM8 3.4799V4.1518C10.3899 4.1518 12.3329 6.0297 12.3329 8.33672H13.0285C13.0285 5.65832 10.7731 3.4799 8 3.4799ZM8 5.98508V5.31318C9.72554 5.31318 11.1304 6.66879 11.1304 8.33672H10.4348C10.4348 7.04017 9.34239 5.98508 8 5.98508Z" fill="#C0C0C0"/>
</svg>
