<svg width="14" height="15" viewBox="0 0 14 15" fill="none" xmlns="http://www.w3.org/2000/svg">
<path fill-rule="evenodd" clip-rule="evenodd" d="M9.28974 8.02742C10.2799 8.35741 11.1873 8.90254 11.9498 9.63891C13.2719 10.9159 14 12.6137 14 14.4197H12.9062C12.9062 11.2741 10.2567 8.71508 7 8.71508C3.74328 8.71508 1.09375 11.2741 1.09375 14.4197H0C0 12.6137 0.728137 10.9159 2.05026 9.63891C2.81269 8.90254 3.72017 8.35741 4.71029 8.02742C3.64982 7.32198 2.95312 6.14137 2.95312 4.80639C2.95312 2.65115 4.76856 0.897705 7 0.897705C9.23144 0.897705 11.0469 2.65115 11.0469 4.80639C11.0469 6.14137 10.3502 7.32198 9.28974 8.02742ZM4.04688 4.80639C4.04688 6.37917 5.37165 7.65868 7 7.65868C8.62835 7.65868 9.95312 6.37917 9.95312 4.80639C9.95312 3.23362 8.62835 1.95411 7 1.95411C5.37165 1.95411 4.04688 3.23362 4.04688 4.80639Z" fill="#C6C6C6"/>
</svg>
