<svg width="19" height="11" viewBox="0 0 19 11" fill="none" xmlns="http://www.w3.org/2000/svg">
<path fill-rule="evenodd" clip-rule="evenodd" d="M8.92213 10.5335H10.0122C10.0122 10.5335 10.3414 10.4979 10.5095 10.3194C10.6643 10.1556 10.6593 9.84784 10.6593 9.84784C10.6593 9.84784 10.638 8.40719 11.3168 8.19504C11.986 7.98606 12.8453 9.58741 13.7561 10.2031C14.4448 10.6691 14.9682 10.5669 14.9682 10.5669L17.4035 10.5335C17.4035 10.5335 18.6775 10.4562 18.0734 9.46963C18.0239 9.38892 17.7216 8.7398 16.2627 7.40595C14.7357 6.00992 14.9402 6.23572 16.7796 3.82089C17.8998 2.35025 18.3477 1.4524 18.2078 1.06785C18.0744 0.701592 17.2505 0.7984 17.2505 0.7984L14.5084 0.815225C14.5084 0.815225 14.3052 0.787914 14.1544 0.876675C14.0071 0.963729 13.9123 1.16661 13.9123 1.16661C13.9123 1.16661 13.4783 2.30465 12.8995 3.27248C11.6785 5.31471 11.1903 5.42249 10.9908 5.29569C10.5266 5.00014 10.6425 4.10839 10.6425 3.47487C10.6425 1.4958 10.9472 0.670623 10.0491 0.457013C9.75098 0.386053 9.53164 0.339234 8.76938 0.331675C7.791 0.321677 6.9629 0.334601 6.49401 0.560892C6.18208 0.711346 5.94144 1.04664 6.088 1.0659C6.26922 1.0898 6.67968 1.1749 6.89729 1.46679C7.17828 1.84329 7.16838 2.68895 7.16838 2.68895C7.16838 2.68895 7.32979 5.01868 6.79133 5.30812C6.42172 5.50662 5.91471 5.10134 4.82616 3.24858C4.26839 2.29953 3.84729 1.25049 3.84729 1.25049C3.84729 1.25049 3.76608 1.05444 3.62126 0.949585C3.44549 0.822541 3.1999 0.782062 3.1999 0.782062L0.594273 0.798887C0.594273 0.798887 0.20312 0.809617 0.0595316 0.97714C-0.0682123 1.12613 0.0493814 1.43436 0.0493814 1.43436C0.0493814 1.43436 2.08932 6.13526 4.39911 8.50424C6.51703 10.6762 8.92213 10.5335 8.92213 10.5335Z" fill="white"/>
</svg>
