<svg width="80" height="62" viewBox="0 0 80 62" fill="none" xmlns="http://www.w3.org/2000/svg">
<path fill-rule="evenodd" clip-rule="evenodd" d="M79.1723 13.4998C79.1723 13.4998 78.3447 7.53836 76 4.90434C72.9655 1.43843 69.5172 1.43843 68 1.29975C56.8277 0.46802 40 0.329346 40 0.329346C40 0.329346 23.1723 0.46802 12 1.29975C10.4828 1.43843 7.03453 1.5771 4 4.90434C1.51719 7.53852 0.827656 13.4998 0.827656 13.4998C0.827656 13.4998 0 20.5703 0 27.6408V34.1567C0 41.2272 0.827656 48.1591 0.827656 48.1591C0.827656 48.1591 1.65531 54.1205 4 56.7545C7.03453 60.2204 11.0345 60.0817 12.8277 60.4978C19.1723 61.1907 40 61.3293 40 61.3293C40 61.3293 56.8277 61.3293 68 60.3589C69.5172 60.2203 72.9655 60.0816 76 56.7544C78.3448 54.1203 79.1723 48.1589 79.1723 48.1589C79.1723 48.1589 80 41.0884 80 34.1566V27.6406C80 20.5703 79.1723 13.4998 79.1723 13.4998Z" fill="#292929"/>
<path fill-rule="evenodd" clip-rule="evenodd" d="M30 16.3293V46.3293L56 31.6751L30 16.3293Z" fill="white"/>
</svg>
